<svg xmlns="http://www.w3.org/2000/svg" viewBox="0 0 380 600"><defs><style>.cls-1{isolation:isolate;}.cls-2{fill:#fff;}.cls-3,.cls-4{opacity:0.3;}.cls-3{mix-blend-mode:multiply;}</style></defs><g class="cls-1"><g id="Layer_1" data-name="Layer 1"><path d="M112.3522,96.56c.3388-1.0856,6.0357-3.376,12.6185-6.0807,6.589-2.6787,14.0848-5.6844,18.114-7.7333,5.3325-2.7138,11.0264-5.3788,16.843-7.9772l8.7821-3.8528,4.3961-1.8914,2.1872-.9363,1.5257-.6395c.6941-.301,1.3974-.5443,2.1014-.7934a1.4814,1.4814,0,0,1,.716-.3348l.7034-.1722,1.4058-.3427.7024-.1707a3.6571,3.6571,0,0,1,.5976.0287,4.3442,4.3442,0,0,1,1.1924.2044,7.978,7.978,0,0,1,4.1054,3.3928,20.65,20.65,0,0,1,1.4426,2.6c.4207.8848.8565,1.9521,1.1176,2.6352.4316,1.0994.8121,2.1758,1.16,3.2417a89.8507,89.8507,0,0,1,4.0035,22.1955,98.9006,98.9006,0,0,1-1.0771,21.1672,79.489,79.489,0,0,1-4.9835,18.6683c-.328.7144-.6281,1.4155-.9809,2.1073-.3533.6835-.7218,1.41-1.0347,1.9337l-1.8945,3.4745c-1.2425,2.3107-2.4611,4.5567-3.7732,6.6188a63.3393,63.3393,0,0,1-.4216-8.2191,43.3644,43.3644,0,0,1,.3067-4.5982c.104-.8024.1218-1.4212.19-2.1246.0294-.7074.0968-1.3736.1176-2.0728.2566-5.5022.3341-10.72,1.1239-13.3957a87.3774,87.3774,0,0,0,2.9892-15.0317,79.9366,79.9366,0,0,0,.1717-14.5081,72.66,72.66,0,0,0-2.2925-13.4737c-.2938-1.0559-.6128-2.0926-.9677-3.0921-.19-.5361-.2732-.7513-.413-1.0965-.13-.317-.2677-.6293-.4187-.933a7.5374,7.5374,0,0,0-.5029-.8763,1.5387,1.5387,0,0,0-.724-.6593,3.93,3.93,0,0,0-.9292.3446l-.91.3852-24.87,10.2939c-7.9128,3.2129-15.3076,6.0347-22.3834,8.1206C126.1545,95.0281,114.6309,96.4537,112.3522,96.56Z"/><path class="cls-2" d="M95.8436,73.9722c12.6692-1.3065,24.5233,4.5232,28.5974,9.8727,0,0,10.6283,11.773,5.9469,28.1368-3.2177,11.2476-15.7877,18.3155-27.76,19.6745-10.7411,1.2192-27.2011-4.5046-31.6367-19.9821C64.9511,90.5966,79.2387,75.6844,95.8436,73.9722Z"/><path d="M95.85,74.032a4.7717,4.7717,0,0,1-1.6306.6641c-.4391.1374-.9636.2418-1.5391.4262l-1.9.64a32.4071,32.4071,0,0,0-9.4223,5.1094,26.193,26.193,0,0,0-7.52,9.4787,23.4357,23.4357,0,0,0-2.18,9.55,32.1109,32.1109,0,0,0,.6892,6.6565l.148.8352.2415.8261.4758,1.655a24.5566,24.5566,0,0,0,1.15,3.1763,23.11,23.11,0,0,0,3.5634,5.6323,26.45,26.45,0,0,0,2.3274,2.4182,29.0592,29.0592,0,0,0,2.6928,2.0523,26.8742,26.8742,0,0,0,6.0716,3.1015,33.9742,33.9742,0,0,0,3.2667,1.03c1.1166.2315,2.2233.5014,3.3465.6187a25.8638,25.8638,0,0,0,6.5665.0818,39.2623,39.2623,0,0,0,6.5433-1.4889,33.83,33.83,0,0,0,11.9049-6.5856,22.4741,22.4741,0,0,0,4.1076-4.8633,17.7894,17.7894,0,0,0,1.3849-2.722l.5094-1.4172.3851-1.5762a26.7947,26.7947,0,0,0,.7653-6.32,30.0476,30.0476,0,0,0-.7168-6.21,32.5469,32.5469,0,0,0-2.0287-5.8276,28.64,28.64,0,0,0-1.4019-2.6845c-.247-.4368-.5146-.8466-.7793-1.2571-.2537-.3837-.5759-.8315-.7616-1.082l-.1674-.2017a15.8175,15.8175,0,0,0-2.468-2.6465,26.4179,26.4179,0,0,0-3.1191-2.2635,36.3408,36.3408,0,0,0-6.8245-3.3116,41.894,41.894,0,0,0-6.9247-1.8658,43.331,43.331,0,0,0-6.6477-.57,25.1064,25.1064,0,0,1,7.1006-1.8828,31.8085,31.8085,0,0,1,8.8118.2607,31.4528,31.4528,0,0,1,8.7361,2.7666,20.929,20.929,0,0,1,6.9414,5.2437l-.208-.2506c.5133.5617.7919.92,1.1221,1.3422.31.4056.5768.7931.8348,1.1633a18.0244,18.0244,0,0,1,1.1685,2.0312,35.8008,35.8008,0,0,1,3.3673,21.499c-.1743.8622-.2732,1.734-.51,2.5692l-.6985,2.4893c-.26.826-.6222,1.6524-.9294,2.4658-.39.7827-.7769,1.5632-1.1949,2.3153a28.0446,28.0446,0,0,1-6.5556,7.4853,40.9119,40.9119,0,0,1-16.61,7.7994l-2.1749.4328-2.1793.3128c-.7339.08-1.4832.1162-2.22.1744-.737.0218-1.4688,0-2.1992.0013a35.7544,35.7544,0,0,1-8.4379-1.3632,39.3955,39.3955,0,0,1-3.9523-1.365,36.2988,36.2988,0,0,1-7.1274-4.0556A32.1277,32.1277,0,0,1,76.01,123.854a27.2265,27.2265,0,0,1-4.7707-6.3256,25.864,25.864,0,0,1-1.5987-3.5406l-.6479-1.8067-.45-1.8088a32.6343,32.6343,0,0,1-.5411-14.3948,27.2892,27.2892,0,0,1,5.83-12.2366A24.1641,24.1641,0,0,1,79.0549,79L80.65,77.9465l1.7064-.88a25.4594,25.4594,0,0,1,3.4457-1.4492A11.8907,11.8907,0,0,1,87.4992,75.1l1.6265-.4154c1.0516-.2467,2.0643-.33,2.94-.4718a7.525,7.525,0,0,1,1.2464-.11l1.0661-.0354Z"/><g class="cls-3"><path d="M76.8442,95.5464a1.0326,1.0326,0,0,1-.5029.2045l.3394-.39a6.6367,6.6367,0,0,1,.7551,2.8969,10.4251,10.4251,0,0,1-.9267,4.84l-.8725-1.5785a1.7144,1.7144,0,0,0,1.4341-.7813l1.9927,1.4229a11.4543,11.4543,0,0,0-1.2483,2.2008,2.368,2.368,0,0,0-.125,1.7483,1.3563,1.3563,0,0,0,.9724.4917.72.72,0,0,0,.3772-.0517c.1741.4066.3222.2944-.0847.1833l3.1083.9726c-.3677,1.2642-.6785,2.3964-.9026,3.33-.3457,1.44-.7142,2.9-1.1075,4.3917l-2.5539-3.1623a7.5291,7.5291,0,0,0,4.05-2.5317L85.67,113.7a6.2132,6.2132,0,0,0-1.1353,1.98,1.1317,1.1317,0,0,0-.0516.306c.0136.0148-.0084.0664.0143.046a5.1568,5.1568,0,0,0-.5956-.0036c-.6958.053-.592.3093-.1282-.267.0716-.1007.0116-.037-.0158.0025a.8856.8856,0,0,0-.0837.1367.55.55,0,0,1-.04.0824.247.247,0,0,0-.0189.0479.2945.2945,0,0,0,.0142-.0928,1.3493,1.3493,0,0,0,.0041-.3509,3.43,3.43,0,0,0-.0844-.5482l-.0183-.0851,0-.0037.0007-.0027c-.003.0039.0094-.0076.0211-.017.0366-.0239.1187-.0711.2188-.1448a6.5148,6.5148,0,0,0,1.4687-1.5581l5.2306,4.5577a2.9539,2.9539,0,0,0-.6456,2.656c.0026.0129.004.01.0056.0152-.0085.0035.0214-.0055-.019.0052l-.2453.0665c-.2881.0773-.5413.1581-.7458.2285a5.0979,5.0979,0,0,0-.9142.4034,1.2758,1.2758,0,0,0-.4139.3237.5782.5782,0,0,0,.0223-.179,2.299,2.299,0,0,0-.0756-.5776,5.4044,5.4044,0,0,0-.3126-.8812c-.0761-.1916-.16-.3393-.26-.5461l-.1563-.29c-.0245-.0384-.004-.0149-.008-.0249l2.0217-1.6478,3.8709-3.1156,10.745-8.6484-4.6959,13.11a34.22,34.22,0,0,0-1.7839,7.658L91.37,122.3171a23.8032,23.8032,0,0,0,7.4685-5.0443l5.4012,5.1607a4.2225,4.2225,0,0,0-1.2931,3.7874l-5.1387-1.8725a39.1215,39.1215,0,0,0,7.3753-5.5674l6.2845-6.0317-1.5526,8.0951c-.409,2.1324-.8072,4.018-1.2117,5.82l-3.7738-1.6049a19.8779,19.8779,0,0,0,4.2773-6.0488,13.1189,13.1189,0,0,1-1.2116,8.5971l-2.3033,4.6992-.9508-6.083c-.3153-2.0168-.5406-4.0824-.6723-6.029l5.5685,2.4282a20.2244,20.2244,0,0,1-6.5726,6.9135c-.4593.2527-.9211.4943-1.3479.7076l-4.69,2.3446-.866-4.3691a10.9739,10.9739,0,0,1,3.4433-10.3621l4.0165,3.8377a30.9015,30.9015,0,0,1-9.8843,6.0432l-3.2789,1.2381.5209-3.26a41.5565,41.5565,0,0,1,2.4907-8.975l2.51,1.851L92.2912,121.34l-1.7923,1.3633-.4529.3465c-.1791.1349-.3684.27-.58.3994a4.0061,4.0061,0,0,1-1.6684.6115,2.6534,2.6534,0,0,1-2.2818-.9007,3.657,3.657,0,0,1-.7567-1.662,7.7869,7.7869,0,0,1-.1058-2.6732,8.2082,8.2082,0,0,1,2.2323-4.6361l2.408,2.0982a10.73,10.73,0,0,1-3.1161,2.9285,5.2008,5.2008,0,0,1-2.4765.7639,4.0876,4.0876,0,0,1-2.8118-1.0223,3.94,3.94,0,0,1-1.3328-2.7809,5.9566,5.9566,0,0,1,.4533-2.4444,11.356,11.356,0,0,1,2.2091-3.4064l2.8355,2.73a11.7748,11.7748,0,0,1-6.9744,3.692l-3.3941.5029,1.109-3.3324c.8654-2.6,1.7251-5.1058,2.6006-7.5121l4.1864,1.3023a3.5741,3.5741,0,0,1-1.2336,1.8529,3.7538,3.7538,0,0,1-1.796.7449,4.8844,4.8844,0,0,1-2.8829-.49,4.194,4.194,0,0,1-2.4136-2.932,4.6161,4.6161,0,0,1-.1-.6655,5.3223,5.3223,0,0,1,.047-1.2912,8.8686,8.8686,0,0,1,2.5215-4.51l2.7564,1.9682a4.2171,4.2171,0,0,1-4.0535,1.51l-2.1363-.4067,1.0958-1.4757a10.2087,10.2087,0,0,0,1.7079-3.7687,12.2724,12.2724,0,0,0,.2794-2.8064l.0005-.0006A2.9235,2.9235,0,0,1,76.8442,95.5464Z"/></g><g class="cls-4"><ellipse cx="206.0856" cy="497.8887" rx="77.5" ry="38.75"/><path d="M283.5246,497.8887a5.4576,5.4576,0,0,1-.2786-1.138c-.0555-.28-.0829-.6055-.1636-.9663l-.2767-1.197a23.9529,23.9529,0,0,0-2.6395-6.5069,32.8364,32.8364,0,0,0-6.2492-7.5266,51.66,51.66,0,0,0-9.52-6.76,91.8029,91.8029,0,0,0-23.3643-8.8793,119.1343,119.1343,0,0,0-20.31-3.0811,163.0875,163.0875,0,0,0-28.3632.7079,131.5163,131.5163,0,0,0-28.528,6.3213,88.1656,88.1656,0,0,0-13.2771,5.9266,50.556,50.556,0,0,0-11.2657,8.37,30.255,30.255,0,0,0-4.1187,5.2053,19.5859,19.5859,0,0,0-2.3678,5.7558,16.7555,16.7555,0,0,0,1.624,11.6085,29.6388,29.6388,0,0,0,7.0881,8.511,52.7962,52.7962,0,0,0,9.7013,6.5079,96.89,96.89,0,0,0,22.2918,8.2293,151.812,151.812,0,0,0,46.0581,3.5287c14.8166-1.1194,28.87-4.2452,40.6657-9.7669a51.9423,51.9423,0,0,0,15.2365-10.3663c4.0662-4.152,6.7369-9.2567,6.9793-14.4836a18.067,18.067,0,0,1-.4553,7.9744,26.9181,26.9181,0,0,1-4.2986,8.5707c-4.0235,5.5183-9.9344,10.1274-16.0754,13.6574a87.57,87.57,0,0,1-18.3488,7.7644,84.0448,84.0448,0,0,1-14.2058,3,167.5884,167.5884,0,0,1-40.4906-.6793,140.1588,140.1588,0,0,1-18.8893-3.9223c-3.05-.86-6.0487-1.8186-8.9733-2.921a90.8545,90.8545,0,0,1-8.5626-3.6512,70.1246,70.1246,0,0,1-8.0148-4.5136,54.1041,54.1041,0,0,1-7.22-5.5663,36.6668,36.6668,0,0,1-5.8753-6.9273,25.1573,25.1573,0,0,1-3.5216-8.3713,21.2462,21.2462,0,0,1,.0507-9.0093,25.1476,25.1476,0,0,1,3.4288-8.0966,42.3752,42.3752,0,0,1,11.923-11.7193,77.3273,77.3273,0,0,1,14.1488-7.456,111.7315,111.7315,0,0,1,14.6387-4.7844,141.3966,141.3966,0,0,1,28.9028-4.1134,147.0038,147.0038,0,0,1,27.2569,1.3242,113.9861,113.9861,0,0,1,24.7485,6.2861,73.3875,73.3875,0,0,1,12.0673,5.8425,52.0641,52.0641,0,0,1,11.4018,9.1431,32.0251,32.0251,0,0,1,4.0773,5.4274,29.3408,29.3408,0,0,1,1.4451,2.7245,26.193,26.193,0,0,1,.987,2.6283A20.9935,20.9935,0,0,1,283.5246,497.8887Z"/></g><path class="cls-2" d="M225.6566,301.42c10.88-3.1741,22.5485-1.1316,33.5721,1.5009,6.4348,1.5368,12.9207,3.3091,18.5859,6.7258,9.3635,5.6473,16.69,17.4647,14.4875,28.5631"/><path d="M292.2431,338.1976c-.2947-.2393-.336-1.1833-.3993-2.5162a29.4979,29.4979,0,0,0-.6466-4.8946,22.8215,22.8215,0,0,0-4.2682-9.2357,38.339,38.339,0,0,0-9.5123-8.2924,47.191,47.191,0,0,0-11.9756-4.7553c-3.6258-.95-7.4424-1.8053-11.0821-2.6762-3.64-.8424-7.1534-1.623-10.5062-2.2061a87.9063,87.9063,0,0,0-9.5414-1.1639,63.5648,63.5648,0,0,0-8.34.0408,17.8452,17.8452,0,0,1,8.239-5.3783c3.3309-1.1381,6.6322-1.3982,8.2764-.9867,6.637,1.68,12.4018,3.628,17.8666,5.243A112.6533,112.6533,0,0,1,275.7,306.6823a36.8735,36.8735,0,0,1,6.5334,3.8246,36.0667,36.0667,0,0,1,5.2522,4.8345,32.1022,32.1022,0,0,1,3.8455,5.4961,24.6063,24.6063,0,0,1,2.2344,5.891,16.6517,16.6517,0,0,1,.17,6.8519,12.4525,12.4525,0,0,1-.3678,1.6055,10.1637,10.1637,0,0,1-.419,1.352C292.631,337.334,292.3773,337.9143,292.2431,338.1976Z"/><path class="cls-2" d="M217.6136,455.9869c-5.1351,5.5108-21.0974,17.2606-23.8994,24.1115,3.4417,4.0466,6.442,9.7274,6.2677,13.814a17.9533,17.9533,0,0,1-8.0713,13.9029,28.0842,28.0842,0,0,1-10.7352,3.97c-15.3017,2.6932-35.7534-5.3-35.8178-23.017-.02-5.4833,1.444-10.8507,2.8968-16.1381l10.4566-38.0578"/><path d="M158.769,434.5883c.8049,1.7483-6.2834,27.3623-8.3117,37.4247a97.3793,97.3793,0,0,0-2.1843,13.3978,32.6674,32.6674,0,0,0-.03,3.3034c.0464.5271.08,1.05.1372,1.57.0954.5125.1368,1.0356.2645,1.538a17.3312,17.3312,0,0,0,2.3111,5.6829,22.2624,22.2624,0,0,0,9.6253,7.9679,33.844,33.844,0,0,0,12.4876,2.9382,34.3854,34.3854,0,0,0,6.0577-.2622,33.4287,33.4287,0,0,0,5.8263-1.35,16.6372,16.6372,0,0,0,8.6806-6.0427,14.1921,14.1921,0,0,0,2.181-4.5545,13.7835,13.7835,0,0,0,.4156-2.4136,7.0855,7.0855,0,0,0-.191-2.07,20.1541,20.1541,0,0,0-1.8669-4.8545c-.4235-.8-.8821-1.584-1.3665-2.3462l-.4572-.6773c-.2668-.3835-.5573-.7477-.8432-1.1151l-1.6963-2.1619a34.288,34.288,0,0,1,2.1116-3.7944l.56-.878.278-.4349.2143-.2564.8556-1.0161c1.148-1.3133,2.3258-2.4617,3.4964-3.5624,2.352-2.1716,4.7044-4.0762,6.9861-5.8648,4.54-3.5775,8.9448-6.5792,12.481-9.5349a40.6869,40.6869,0,0,1-4.6055,7.2615c-1.9224,2.5537-4.0835,5.17-6.16,7.6706-2.0753,2.4983-4.0724,4.8908-5.6463,6.9395-.37.513-.7866,1-1.0926,1.46l-.4709.6668a5.2885,5.2885,0,0,0-.3067.4328.2473.2473,0,0,1-.0634.1026.2094.2094,0,0,0-.07.0083l-.0235.009a.1694.1694,0,0,0-.082.0674.28.28,0,0,0-.0253.0519l-.0075.0124.0847.1395.179.2919c.4656.7849.9064,1.5767,1.3134,2.3848a32.9365,32.9365,0,0,1,2.0659,5.0352,17.5105,17.5105,0,0,1,.8666,5.7158,12.5757,12.5757,0,0,1-.1386,1.4442c-.0515.4582-.1606.9046-.24,1.3531a20.2931,20.2931,0,0,1-.7572,2.5947,21.1151,21.1151,0,0,1-5.7944,8.4548,23.7,23.7,0,0,1-8.4391,4.6833,39.2745,39.2745,0,0,1-17.5691,1.4415,37.533,37.533,0,0,1-15.5289-5.658,26.843,26.843,0,0,1-5.9922-5.4157,22.5608,22.5608,0,0,1-3.7876-6.9866,24.3563,24.3563,0,0,1-1.1034-7.607,42.6524,42.6524,0,0,1,.7283-7.1632c.85-4.6048,2.0908-8.77,3.1769-12.8238,1.119-4.052,2.2479-7.95,3.4139-11.695C152.8181,448.9444,157.742,436.9305,158.769,434.5883Z"/><g class="cls-3"><path d="M185.8285,487.1652c-.0756-.7137,1.9669-3.7542,2.9709-8.5l1.4038,1.3354c-3.7392,1.3939-8.3076,3.0012-12.8389,4.5945l-1.5337-2.633c4.8047-4.6839,9.5552-9.3125,12.3737-12.3324,3.1537-3.379,6.4708-6.8214,9.993-10.3868l3.5674,5.0221c-8.0841,4.8394-16.6854,9.7422-25.1145,14.4752l-4.4655-6.6939q6.6843-5.7091,12.6662-11.3291l2.0224-1.9115a.1171.1171,0,0,0,.0052-.0582.0365.0365,0,0,0-.0464-.0269c-.0286.004-.05.0211-.0144-.0006.0316-.0189.0912-.058.0983-.0983.0058-.0357-.0281-.0733-.1591-.0973l-3.5461.8033-3.6563.861c-2.388.5971-4.7427,1.18-6.9324,1.8709a38.1285,38.1285,0,0,0-5.9926,2.3049l-2.6685-6.4506,8.332-1.4939c2.6519-.4872,5.2-.9851,7.6121-1.5382a42.4438,42.4438,0,0,0,6.6317-1.9536l.691-.3029.5607-.3192a9.1524,9.1524,0,0,0,1.1737-.8817,3.3267,3.3267,0,0,0,1.2591-1.9535,3.2752,3.2752,0,0,1-.1586,2.8417,8.8145,8.8145,0,0,1-.9348,1.5922c-.2012.25-.41.5257-.6412.7757l-.7367.7017a34.7716,34.7716,0,0,1-7.1606,4.5538,92.2629,92.2629,0,0,1-14.7624,5.6959l-3.3293-8.0481c.6261-.387,1.2332-.7487,1.8159-1.0829.5767-.3141,1.1105-.5463,1.6264-.7875a18.7766,18.7766,0,0,1,2.6868-.9895c4.3935-1.2157,8.5462-1.9532,12.5989-2.7113l3.01-.5433.7605-.1379,1.2275-.2536,2.406-.4966c3.1644-.6573,6.1179-1.2869,9.2663-2.1864a6.2818,6.2818,0,0,0,4.9567,1.1224l.1491-.0253c.0188.0142-.0408.0855-.0576.1256l-.1636.2854-.3386.5752c-.2336.38-.44.8206-.6748,1.229a22.7766,22.7766,0,0,0-1.2441,2.8078c-2.6544,2.5409-5.2421,4.9929-7.8437,7.3635l-3.2379,2.9284-2.7624,2.4568q-5.5018,4.8582-10.7975,9.2972l-1.98-2.9673c9.0329-4.9528,17.4284-9.7093,25.3079-14.113l2.6641,3.75c-7.9916,7.6527-15.3856,14.6172-22.5324,20.7368l-.918.8069-2.2265-3.8222c3.8432-1.0834,8.9808-2.2019,13.331-3.0593l2.0706-.4081-.66,1.75A21.7553,21.7553,0,0,1,185.8285,487.1652Z"/></g><path class="cls-2" d="M128.5086,172.8012c-1.8315-10.2149-7.4986-13.6217-18.0751-15.8831-8.1389-1.74-30.8384-.2146-41.831,11.867C54.968,183.77,51.386,192.12,56.8934,212.4987c5.1723,19.1387,26.57,34.0444,47.1488,20.4807"/><path d="M104.067,233.0171a14.2192,14.2192,0,0,1-4.2271,2.9714,27.6516,27.6516,0,0,1-16.6615,2.9039,30.69,30.69,0,0,1-6.0816-1.5466,36.38,36.38,0,0,1-9.0532-4.99,36.83,36.83,0,0,1-9.6182-10.7039,37.665,37.665,0,0,1-3.2-6.8312l-.586-1.8185-.4918-1.7778-.49-1.7834-.4211-1.8179-.4137-1.8244-.3241-1.8619c-.2441-1.2328-.37-2.5054-.5039-3.7748-.1636-1.2622-.13-2.5715-.1975-3.8551l.0872-1.9526.0483-.9756.13-.9747a30.41,30.41,0,0,1,1.9137-7.5714,34.9514,34.9514,0,0,1,1.6083-3.4675c.5627-1.1363,1.2175-2.1821,1.8673-3.2233a80.6716,80.6716,0,0,1,7.6532-9.87c.6819-.7628,1.3062-1.5151,2.1429-2.3a23.3349,23.3349,0,0,1,2.4353-2.219,35.22,35.22,0,0,1,5.3379-3.5836,47.6932,47.6932,0,0,1,11.4507-4.4141,64.3077,64.3077,0,0,1,11.51-1.7831,51.44,51.44,0,0,1,11.17.4008,43.844,43.844,0,0,1,5.2178,1.3316,34.2539,34.2539,0,0,1,4.85,1.8991,19.8308,19.8308,0,0,1,4.3372,2.8017,16.27,16.27,0,0,1,3.22,3.8156,21.0621,21.0621,0,0,1,2.5612,8.4321,26.2929,26.2929,0,0,0-4.4414-7.2031,16.4826,16.4826,0,0,0-7.7512-4.38,41.92,41.92,0,0,0-4.4052-.9812c-1.432-.259-2.9446-.4952-4.0819-.5952-2.47-.2112-4.7315-.1611-6.26-.2618a55.9524,55.9524,0,0,0-18.1109,2.1,39.5877,39.5877,0,0,0-8.0574,3.311,29.8894,29.8894,0,0,0-6.66,5.0471c-3.9129,4.1792-7.5826,8.3791-10.1844,12.9608a27.3942,27.3942,0,0,0-3.7507,14.4807,57.4318,57.4318,0,0,0,2.3842,14.1913,35.9089,35.9089,0,0,0,14.4375,20.44,30.1347,30.1347,0,0,0,10.3831,4.486,32.1977,32.1977,0,0,0,5.909.6789,28.66,28.66,0,0,0,6.5386-.6749A36.99,36.99,0,0,0,104.067,233.0171Z"/><g class="cls-3"><path d="M64.0039,198.5091c.1943-.0256.7439.2464,1.0479,1.0762a2.865,2.865,0,0,1,.0868,1.5183,2.9237,2.9237,0,0,1-1.0979,1.7186l.1281-1.3023a3.9989,3.9989,0,0,0,2.734.8368l.2754,2.1253a3.3391,3.3391,0,0,0-2.299,2.9987l-.8371-1.2888a8.3653,8.3653,0,0,0,4.1139.327l.9692,2.807a4.1518,4.1518,0,0,0-1.6022,2.2279,3.2886,3.2886,0,0,0,.0412,2.0775L65.6,212.1l.1463-.0218a25.0644,25.0644,0,0,0,5.2352-1.39l2.27,4.3389a10.7339,10.7339,0,0,0-2.9914,5.3666l-1.345-3.0274a.8788.8788,0,0,0-.2223.3471l-.0355.1175.0116-.0383a.2293.2293,0,0,0,.0066-.0689c.0021-.0409-.0138.0214-.0029-.0885a1.8431,1.8431,0,0,0-.0015-.36l-.0526-.39.3226-.1933c.2277-.1329.3477-.2339.5275-.353l2.0218-1.3989c.3462-.2438.63-.3746.95-.5682a6.2879,6.2879,0,0,1,.8728-.4574,8.3023,8.3023,0,0,1,4.2956-.8895,9.1679,9.1679,0,0,1,2.0221.6284c1.2916.5212.7567.3907.9583.52a3.79,3.79,0,0,0,.7726.4719c.4674.2432,1.1612.58,2.4645,1.1835l-2.3938,2.31-1.8314,1.8061c-.132.1373-.3337.3141-.4081.4186l-.2307.3179-.4608.6344a5.5981,5.5981,0,0,0-.6777,1.1549l-.2736.5463-.1756.5167a6.7343,6.7343,0,0,0-.2953.9845l-.094.4462a3.4479,3.4479,0,0,0-.0678.3575l-.04.3783-2.6851-3.104a1.1263,1.1263,0,0,0-.1241.302,1.3076,1.3076,0,0,0-.0319.1761c-.0075.064-.0086.1408-.0092.108-.0023-.0087-.0067-.0084-.0091.0009l-.0016.02a1.3125,1.3125,0,0,0-.0216-.1683,1.1094,1.1094,0,0,0-.099-.2907.5027.5027,0,0,1-.0363-.0751l-.0571-.1643q-.0607-.1617-.1353-.3123a3.2833,3.2833,0,0,0-.1613-.2893l-.09-.1356c-.0126-.0129-.0139.002-.0139.002a.3576.3576,0,0,1,.047-.054c.0309-.01.1882-.1834.3077-.2906.165-.186.31-.3292.5146-.5707.3684-.4195.8368-.9806,1.3823-1.5617a12.0483,12.0483,0,0,1,2.2538-1.9049,7.4929,7.4929,0,0,1,4.0938-1.1162l7.1969.25-4.173,5.9628a41.4213,41.4213,0,0,0-4.8132,9.1081l-3.4647-5.1562c.0057-.0277.0043-.0074.0172.0118.0174-.0322.02.01.07-.0078a2.1162,2.1162,0,0,0,.5281-.2836,16.4247,16.4247,0,0,0,1.98-1.8151,19.6266,19.6266,0,0,1,3.0191-2.6289c.3424-.2228.7388-.4373,1.11-.6386a13.9408,13.9408,0,0,1,1.3254-.5113,12.9783,12.9783,0,0,1,1.4941-.2613,14.9745,14.9745,0,0,1,1.5048.0559l7.3992.6509-5.2671,5.0482a12.2958,12.2958,0,0,0-3.6078,7.0038l-3.0088-2.8451A12.0226,12.0226,0,0,0,89.356,228.51a12.1834,12.1834,0,0,0,4.2381-4.1445,9.54,9.54,0,0,1-2.091,6.86,13.5685,13.5685,0,0,1-7.6084,4.9416l-3.1518.7365-.397-4.0922a14.7111,14.7111,0,0,1,.6879-6.0642,11.4532,11.4532,0,0,1,2.1846-3.9468,18.4922,18.4922,0,0,1,1.4969-1.4972l2.2684,6.0632c-.01-.0027-.02-.0541-.0455-.1008-.024.0056-.04-.0688-.1045-.0722a1.1137,1.1137,0,0,0-.64.1549A11.1123,11.1123,0,0,0,83.9993,229a24.5483,24.5483,0,0,1-2.9339,2.3641c-.3183.1916-.6509.3751-.9756.5518-.3657.1626-.7478.3095-1.12.4469-.4134.1015-.8307.1908-1.2438.2562-.4269.019-.8543.0216-1.2727.0087l-3.3888-.1038,1.3051-2.9973a49.833,49.833,0,0,1,6.0572-10.3126l1.3119,2.6956a1.9351,1.9351,0,0,0-1.3721.5229,14.1742,14.1742,0,0,0-1.7281,1.6817,13.501,13.501,0,0,1-2.1922,2.028,4.6674,4.6674,0,0,1-1.77.7528,5.4305,5.4305,0,0,1-1.0756.0367,9.4845,9.4845,0,0,1-.9945-.2505l-1.1314-.3423.1759-1.2425.0866-.6114.0751-.4155c.0513-.2487.0973-.4492.1618-.67a9.0835,9.0835,0,0,1,.4468-1.234,8.45,8.45,0,0,1,1.4263-2.1921c.14-.1515.2822-.2962.4286-.4314.0077-.0155.0588-.0382.0309-.0477l-.0795-.0292-.1586-.0577a.7834.7834,0,0,0-.3292-.0647,2.2316,2.2316,0,0,0-1.2877.3562c-.7828.4434-1.42,1.0369-2.0811,1.498a3.8765,3.8765,0,0,1-1.0252.5446c-.0563.0187-.07.0278-.075.0352a.7261.7261,0,0,1-.1459.0211l-.2175.022a2.7393,2.7393,0,0,1-.9089-.0382,4.4317,4.4317,0,0,1-1.7157-.6558l-1.1111-.6063.3757-1.459a14.8594,14.8594,0,0,1,4.81-7.6106l1.9132,3.6563a25.0848,25.0848,0,0,1-6.5343,1.1321l-1.843.0705-.3749-1.8a7.8048,7.8048,0,0,1,3.73-8.3077l1.3583,3.934a11.3038,11.3038,0,0,1-3.6613-.2349,10.5429,10.5429,0,0,1-2.0921-.6894l-1.3293-.5854.1135-1.2863a5.8724,5.8724,0,0,1,4.97-5.143l.3259,2.5152a5.4858,5.4858,0,0,1-3.8232-2.1069l-.5891-.8124.6927-.2415a1.9308,1.9308,0,0,0,1.1362-1.6252A2.19,2.19,0,0,0,64.0039,198.5091Z"/></g><path class="cls-2" d="M248.0949,327.7972c17.0542,22.0522,26.6422,42.5378,25.1927,70.8654-1.1077,21.6478-6.207,41.5456-23.8384,55.1007-17.8083,13.6911-40.9152,21.3333-63.0083,14.3-14.58-4.642-25.5527-17.4431-31.0025-31.7413-5.65-14.8233-4.2192-29.0476-5.21-44.4073-.9224-14.2928-3.7173-28.0927-2.4537-42.5868.9427-10.8125,2.9143-21.9871,9.0527-30.7163,10.4662-14.8836,30.8222-18.7849,47.88-14.2281s31.633,15.9077,45.7188,27.0066"/><path d="M250.3887,331.437c-.961-.3432-5.0763-3.3681-11.1821-7.7316-6.1287-4.2955-14.2992-10.0127-23.9555-14.2286a64.1222,64.1222,0,0,0-15.2569-4.7034,50.366,50.366,0,0,0-15.62-.189,42.7621,42.7621,0,0,0-13.4,4.2387,33.8268,33.8268,0,0,0-9.0077,6.7459l-1.4087,1.5658c-.4445.5439-.8408,1.1292-1.2659,1.6905a18.0709,18.0709,0,0,0-1.2044,1.7422c-.388.5928-.7433,1.2091-1.0807,1.8386a42.04,42.04,0,0,0-3.3329,7.9949,82.8083,82.8083,0,0,0-3.0444,17.7866c-1.1117,12.1741.9869,24.6385,2.357,37.5756.7128,6.48.9584,13.1178,1.157,19.5a128.1659,128.1659,0,0,0,1.63,18.6549,64.15,64.15,0,0,0,2.2289,8.7433,58.357,58.357,0,0,0,3.5139,8.1889,52.5335,52.5335,0,0,0,4.6694,7.4659,50.2155,50.2155,0,0,0,5.7041,6.4884,41.7021,41.7021,0,0,0,12.1867,8.1844c1.0989.5239,2.2576.8766,3.392,1.2934l3.5953.9945c1.2061.3028,2.4389.4866,3.654.741,1.2178.2457,2.4643.313,3.6923.4836a62.4955,62.4955,0,0,0,29.147-4.5978,82.4866,82.4866,0,0,0,13.2047-6.76l3.0878-2.0306,2.9846-2.1619c.964-.7343,1.8554-1.5035,2.7874-2.2477.924-.748,1.7362-1.609,2.6112-2.402A55.0616,55.0616,0,0,0,266.1741,422.4a92.1644,92.1644,0,0,0,2.9208-13.55c.3384-2.2764.5741-4.5624.7958-6.8356q.1371-1.7114.2733-3.41.0771-1.6875.1535-3.3621l.0765-1.6723,0-1.6633q-.0047-1.6612-.0092-3.3091-.0867-1.6429-.1726-3.2722l-.09-1.627-.1712-1.6106a85.3615,85.3615,0,0,0-2.1483-12.5179,94.9555,94.9555,0,0,0-3.7873-11.6681,109.7387,109.7387,0,0,0-5.0289-10.7038,171.0641,171.0641,0,0,0-11.7808-18.7134,120.07,120.07,0,0,1,14.4154,17.2909,89.52,89.52,0,0,1,11.7164,23.8455q.4715,1.6261.939,3.239c.3205,1.075.5211,2.1707.7821,3.2483.542,2.1546.8425,4.3192,1.2048,6.437.29,2.1226.5128,4.2155.6808,6.2516.0833,2.0354.2693,4.0248.2334,5.9324.0152,3.84-.1132,7.3163-.4108,10.428-.1171,1.554-.2968,3.0111-.4816,4.355-.1619,1.344-.3813,2.5737-.5972,3.6753a90.9442,90.9442,0,0,1-3.43,13.0542,69.8653,69.8653,0,0,1-5.597,12.1773,55.2833,55.2833,0,0,1-7.9636,10.552l-1.1257,1.19c-.3839.3868-.7978.7422-1.1946,1.1136-.8117.7227-1.5778,1.4944-2.4221,2.1681l-2.5321,2.007c-.842.6661-1.7208,1.23-2.576,1.8478-.854.6134-1.719,1.2066-2.6119,1.7566-.8859.5592-1.7577,1.1352-2.6489,1.6764-1.8133,1.0351-3.59,2.1106-5.4531,3.02-1.8208.9849-3.7211,1.7974-5.5881,2.6506-.9438.4049-1.9082.76-2.8577,1.14l-1.427.56-1.4537.4843a72.8459,72.8459,0,0,1-11.7618,2.9937,69.5691,69.5691,0,0,1-11.93.9056l-2.9639-.1619c-.4925-.0312-.9855-.0468-1.4759-.091l-1.4653-.1871c-.9746-.1316-1.9512-.2348-2.9175-.39l-2.8736-.586a25.891,25.891,0,0,1-2.8308-.7074c-.9336-.27-1.8682-.5184-2.7945-.8066l-2.7469-1.0117-2.6568-1.1921a50.2645,50.2645,0,0,1-17.3247-14.4172,63.2112,63.2112,0,0,1-10.1536-19.2412,82.462,82.462,0,0,1-3.4943-20.6923c-.4068-6.8285-.4-13.49-.8334-19.96-.4152-6.47-1.2449-12.834-1.936-19.1612a155.1406,155.1406,0,0,1-1.1442-18.8879c.0456-3.13.2686-6.2477.5821-9.2724.3148-3.0425.7269-6.0665,1.315-9.0523a53.0081,53.0081,0,0,1,6.1778-17.0313A37.108,37.108,0,0,1,166.09,307.0483a43.8912,43.8912,0,0,1,15.9975-5.8416,54.0428,54.0428,0,0,1,16.3183-.1245,61.4474,61.4474,0,0,1,16.432,5.0449,99.8381,99.8381,0,0,1,15.885,9.37c4.84,3.4275,9.0954,6.91,12.4888,9.76C246.6033,328.11,249.1344,330.338,250.3887,331.437Z"/><path class="cls-2" d="M264.5483,344.8915c10.8924,20.1455,14.6825,41.8481,10.5962,64.43-2.5078,13.86-7.29,27.25-12.7091,40.21-3.0129,7.2058-9.7707,16.3776-10.9534,23.9528-.903,5.7841-1.1516,2.9628,3.257,7.1282,2.7519,2.6,5.5172,4.6586,7.45,8.0336,2.7088,4.731,3.359,10.905.5742,15.5916-2.0917,3.52-5.8483,5.8139-9.793,6.9126-11.2617,3.1367-25.4653,1.83-34.2122-6.0512C207.06,494.5587,207,480.82,200.0164,467.5"/><path d="M200.07,467.4723c.4936.3341,2.05,2.7177,3.7113,6.5417,1.7249,3.7938,3.3684,9.0484,5.5364,14.3847a52.515,52.515,0,0,0,3.8975,7.7965,33.3179,33.3179,0,0,0,5.3447,6.5608,25.2594,25.2594,0,0,0,11.8913,6.4918,41.4149,41.4149,0,0,0,18.8658-.0556c.7916-.1615,1.5645-.3925,2.34-.6124a15.72,15.72,0,0,0,2.1557-.747,14.853,14.853,0,0,0,3.7347-2.2282,9.74,9.74,0,0,0,3.6866-6.9066,14.1215,14.1215,0,0,0-1.921-8.1684,15.7853,15.7853,0,0,0-2.7008-3.3947c-1.1022-1.0909-2.4135-2.1864-3.7795-3.4153l-.946-.85c-.282-.26-.5676-.4784-.85-.7123l-.4449-.334-.9623-.68a6.0623,6.0623,0,0,1-1.6614-1.6894c-.8759-1.3549-.7217-3.0359-.4262-4.65.2-1.1692.2433-1.6841.47-2.8336a42.3452,42.3452,0,0,1,3.9238-10.5354c1.37-2.7491,2.8239-5.3437,4.1775-7.8895.6656-1.2663,1.33-2.5249,1.9-3.752.307-.6221.5439-1.2131.8175-1.8292l.823-2.008c2.1773-5.3525,4.228-10.6866,6.0335-16.0059,3.6138-10.6256,6.3413-21.2341,7.3115-31.44a97.542,97.542,0,0,0-1.5394-29.0865A112.8,112.8,0,0,0,268,356.6644c-1.3507-4.01-2.9046-7.74-4.44-11.2386a64.4231,64.4231,0,0,1,7.2334,10.1623,77.1422,77.1422,0,0,1,6.0329,13.35c3.2747,9.3588,4.1505,18.9124,3.7716,23.82a126.0065,126.0065,0,0,1-5.4587,28.0064,253.243,253.243,0,0,1-9.1484,24.7458c-.8462,1.9677-1.62,3.8519-2.5344,5.8287-.9209,1.9477-1.9318,3.7775-2.9329,5.5745-2.0016,3.5864-4.02,7.0356-5.5586,10.5539a28.4723,28.4723,0,0,0-1.7967,5.2856c-.0833.4542-.18.8426-.2541,1.3553l-.227,1.367c-.0475.2935-.1048.585-.1292.88a1.1633,1.1633,0,0,0,.0311.4382.8369.8369,0,0,0,.2795.3354l.7174.5108c.3184.2357.7825.5954,1.1506.911.3921.321.7591.6723,1.1239.9969l1.0266.9361a57.24,57.24,0,0,1,4.1913,3.9658,19.7349,19.7349,0,0,1,5.0376,10.6331,17.1914,17.1914,0,0,1-.1929,5.9194,14.3957,14.3957,0,0,1-2.4347,5.4428,18.5441,18.5441,0,0,1-9.2587,6.389,44.7136,44.7136,0,0,1-10.2087,1.8994,40.0806,40.0806,0,0,1-19.4184-3.25,28.2229,28.2229,0,0,1-7.9249-5.408,34.4441,34.4441,0,0,1-5.7019-7.1033,40.9361,40.9361,0,0,1-4.0093-8.6325c-1.1018-3.2112-1.9548-6.5769-2.7688-9.6934-.8042-3.12-1.6127-5.992-2.3568-8.2961C201.093,470.0488,200.3861,468.3376,200.07,467.4723Z"/><g class="cls-3"><path d="M213.8522,492.8212c.0981-.62,2.5368-2.5943,5.8857-5.0914l1.0014,1.7541a24.5314,24.5314,0,0,1-8.7217,2.714l-.8529-2.4751a38.8357,38.8357,0,0,0,9.26-8.9618l.6212-.9009,2.0054,3.31a42.4126,42.4126,0,0,0-10.6875,4.8113l-2.8218-5.02a47.7034,47.7034,0,0,0,12.851-11.8969l4.4292,5.328L216,482.2777l-3.9553,2.1287-4.13-6.5581c5.0964-3.9642,9.9386-8.1184,14.4263-12.3206l4.8113,5.97a57.906,57.906,0,0,1-20.2432,8.0655l-.9073-6.0829a24.0789,24.0789,0,0,0,10.3778-2.7585c1.635-.77,3.2114-1.6039,4.7424-2.4222.781-.4245,1.5151-.7816,2.0491-1.1452a3.5911,3.5911,0,0,0,.6656-.5587,1.64,1.64,0,0,0,.3717-.74,2.38,2.38,0,0,1-.1619,2.1694,14.14,14.14,0,0,1-1.6567,2.2993,39.2152,39.2152,0,0,1-4.3288,4.5116,25.48,25.48,0,0,1-5.5325,3.7414,18.8968,18.8968,0,0,1-6.1592,1.8359l-1.132-7.59a40.6524,40.6524,0,0,1,3.9914-1.1541,48.7286,48.7286,0,0,0,14.464-5.3859l3.0073,3.7318c-5.2706,4.4858-10.4535,8.5465-15.4793,12.2045l-1.691-2.6853c5.2487-2.5895,10.2226-5.1684,14.9488-7.6836l1.95,2.3456a50.9956,50.9956,0,0,1-14.5153,12.98l-1.9187-3.4137a40.1551,40.1551,0,0,1,12.2256-4.757l5.9078-1.2315-3.7764,4.7491a41.397,41.397,0,0,1-10.1713,9.2109c-.3312.2237-.6889.4425-1.2041.7611l-1.24-3.599a29.1267,29.1267,0,0,0,8.0919-1.3155l1.0846,1.9C217.6831,491.088,214.7984,492.4152,213.8522,492.8212Z"/></g><path class="cls-2" d="M239.8944,361.52c-1.4211-.1212-.6612,2.2718.55,3.0247,15.0281,9.3416,32.9163,16.3931,49.8741,7.9885,7.1664-3.5518,13.1207-10.426,13.6426-18.4071.3525-5.3906-1.7855-10.7405-5.0877-15.0158a45.108,45.108,0,0,0-12.3-10.4156c-15.1736-9.3607-28.9757-17.1056-47.6619-15.276-5.2624.5152-10.4595,1.7928-15.7471,1.805"/><path d="M223.1647,315.1632c.3669-.3184,2.2536-.5384,5.0082-1.0549,2.7616-.4836,6.3893-1.3279,10.4575-1.8756a56.8888,56.8888,0,0,1,12.5-.1793,73.0908,73.0908,0,0,1,10.1459,1.7867c9.0618,2.1349,17.9112,6.8219,26.3156,11.6747a51.8376,51.8376,0,0,1,12.3251,9.2919,28.7816,28.7816,0,0,1,7.5373,14.194,21.794,21.794,0,0,1,.1747,7.3017,22.73,22.73,0,0,1-2.2165,6.8949,28.36,28.36,0,0,1-9.0508,10.2659l-1.3992.9284-1.4422.8484-1.482.767-1.4813.6337a38.8917,38.8917,0,0,1-6.03,2.0648,38.3475,38.3475,0,0,1-12.2281.9833,53.84,53.84,0,0,1-20.8293-6.3317,82.37,82.37,0,0,1-8.1483-4.9148c-1.26-.8249-2.4214-1.7209-3.5762-2.55l-.2933-.2244a2.4925,2.4925,0,0,1-.317-.2895,3.9625,3.9625,0,0,1-.4882-.6055,4.6857,4.6857,0,0,1-.609-1.3027,3.302,3.302,0,0,1-.0873-1.7035,1.7836,1.7836,0,0,1,1.5108-1.3729,3.5149,3.5149,0,0,1,.5284.0066,3.9439,3.9439,0,0,0-.4592.087,2.2831,2.2831,0,0,0-.5152.2345,1.4355,1.4355,0,0,0-.62.96,1.99,1.99,0,0,0,.34,1.3572,3.4681,3.4681,0,0,0,1.7,1.436c1.4119.4078,2.8684.92,4.397,1.3831,3.0231.9956,6.24,1.9681,9.3135,2.8412,3.07.9078,6.0472,1.5253,8.579,2.1008,2.5478.502,4.6734.8691,6.1276,1.2244a35.2605,35.2605,0,0,0,8.8019.9847,33.0764,33.0764,0,0,0,8.5395-1.3932l2.0172-.7481,1.0072-.3761c.3248-.1377.6348-.2919.9532-.4367a23.7054,23.7054,0,0,0,3.5889-2.1147,22.2946,22.2946,0,0,0,5.6919-5.7925,17.2083,17.2083,0,0,0,1.8367-3.4955,15.4741,15.4741,0,0,0,.9855-3.7307,17.0037,17.0037,0,0,0-.6908-7.5281,26.2851,26.2851,0,0,0-8.5057-12.0539c-3.732-3.1849-8.0058-5.5185-12.1264-7.9123-4.1125-2.35-8.13-4.4911-12.1038-6.2761a65.4994,65.4994,0,0,0-23.2113-5.98c-.8875-.01-1.8564-.0431-2.8809-.094-1.0242-.0274-2.1031.0022-3.2112-.0188-2.2083,0-4.5542.16-6.7806.266-2.2243.1132-4.3227.1726-6.0109.1176A33.4544,33.4544,0,0,1,223.1647,315.1632Z"/><path class="cls-2" d="M125.7164,313.33c-33.24-12.2665-54.1285-45.3635-49.4147-81.369A101.0521,101.0521,0,0,1,108.42,170.7165c27.536-24.89,70.7857-31.695,106.7279-28.1484,30.232,2.9832,57.7168,13.7577,75.096,31.9742,9.4908,9.9481,27.0142,46.1633,28.25,57.5724,1.3789,12.7275-4.5806,33.7588-8.5975,40.1317-13.9044,22.06-35.358,34.6158-61.1626,41.9981C207.1829,326.1316,166.179,328.2616,125.7164,313.33Z"/><path d="M125.7373,313.2733c1.4194.0984,8.215,2.5311,18.5508,4.88a176.71,176.71,0,0,0,39.2414,4.4384c1.8743.02,3.7641.0318,5.6645-.065,1.9-.0748,3.8123-.1144,5.7281-.2179,3.8285-.2835,7.6845-.5269,11.5086-1.0155,1.9154-.206,3.8267-.4182,5.7193-.7261l5.657-.8515c3.73-.6955,7.4232-1.3106,10.9889-2.14,7.1609-1.5014,13.89-3.3729,19.96-5.14a133.5743,133.5743,0,0,0,15.62-5.7068,108.7334,108.7334,0,0,0,21.747-12.517,93.72,93.72,0,0,0,9.5807-8.3986,82.452,82.452,0,0,0,8.2833-9.8183l.9563-1.3014.8843-1.3553,1.7531-2.7034a34.817,34.817,0,0,0,2.4909-5.6283,95.8648,95.8648,0,0,0,3.5364-12.5926,86.0159,86.0159,0,0,0,1.8351-12.9591c.0254-1.0687.1169-2.1538.0722-3.2033l-.0248-1.5837-.1236-1.5433a8.9214,8.9214,0,0,0-.205-1.4815c-.0983-.4837-.1516-.9448-.278-1.4481-.2942-1.0235-.5147-2.0317-.8606-3.0689a123.0447,123.0447,0,0,0-4.77-12.41c-1.78-4.1109-3.709-8.1785-5.741-12.1833-2.0092-4.0176-4.1615-7.9558-6.3955-11.8094a103.9419,103.9419,0,0,0-7.1886-10.9765c-.6271-.8893-1.3093-1.5828-1.962-2.355-.66-.7586-1.5119-1.5044-2.2559-2.2574l-1.1525-1.127c-.3892-.37-.8095-.7094-1.2121-1.0657l-2.4378-2.111c-1.7233-1.2929-3.3594-2.686-5.1651-3.8617-.89-.6028-1.7562-1.2366-2.6619-1.8136l-2.7421-1.69c-.9-.5826-1.8509-1.084-2.7894-1.6022-.9435-.51-1.8671-1.0506-2.8224-1.5343-1.9344-.9247-3.8151-1.9388-5.7936-2.7524l-2.9314-1.2788-2.9794-1.1523c-1.9663-.8072-4.0055-1.42-6-2.1228a157.5252,157.5252,0,0,0-43.6754-7.2616,182.1583,182.1583,0,0,0-22.02.6084,173.8642,173.8642,0,0,0-21.4956,3.3619,147.132,147.132,0,0,0-20.4083,6.3617,113.7852,113.7852,0,0,0-18.5127,9.6927l-4.2128,2.9663a25.26,25.26,0,0,0-2.0142,1.5823l-1.9719,1.6254c-.6535.5452-1.3219,1.07-1.9624,1.6291l-1.8655,1.7432c-1.2693,1.1331-2.41,2.3929-3.6078,3.5894a98.9321,98.9321,0,0,0-25.7325,52.1141c-.3113,1.5537-.3711,3.1039-.5531,4.648a40.3171,40.3171,0,0,0-.3374,4.6227q-.0353,2.3107-.07,4.6022c.0644,1.5249.2066,3.0407.3021,4.5537.0645.7547.0793,1.5146.1829,2.2615l.3527,2.2312.3483,2.2237a18.1542,18.1542,0,0,0,.4161,2.2006l1.06,4.3263a17.4527,17.4527,0,0,0,.6352,2.1176l.7028,2.0879.6974,2.0808c.227.6943.5624,1.3434.8367,2.0155l1.72,3.9838,2.027,3.7893c.3469.6224.6452,1.2728,1.0288,1.8692l1.1528,1.7823a74.8572,74.8572,0,0,0,10.3418,12.94,79.3968,79.3968,0,0,0,25.7175,16.9042,73.1657,73.1657,0,0,1-27.8634-14.81c-1.1573-.959-2.21-2.0522-3.3364-3.0932l-1.6733-1.5942c-.5329-.5581-1.0327-1.15-1.5535-1.7283-1.02-1.1732-2.0985-2.3208-3.0877-3.5477l-2.8324-3.8178-.7106-.963c-.2228-.33-.4227-.6752-.6353-1.0129l-1.2584-2.0424a40.1921,40.1921,0,0,1-2.3839-4.18q-1.0755-2.1617-2.1489-4.3191l-1.7765-4.4733a73.6112,73.6112,0,0,1-4.28-18.3121,75.6228,75.6228,0,0,1-.464-8.952,17.1394,17.1394,0,0,1,.0632-2.1693l.1418-2.1349c.11-1.4089.1617-2.8118.324-4.1609a91.7183,91.7183,0,0,1,6.8133-25.4572,105.7064,105.7064,0,0,1,20.8541-31.1069c1.0993-1.0806,2.1574-2.1963,3.2835-3.2384,1.1463-1.0218,2.2337-2.098,3.4208-3.0658l3.5687-2.8773c.601-.4675,1.1691-.9782,1.7951-1.4081l1.8736-1.2908,3.7346-2.5677,3.8821-2.2859,1.9341-1.1377c.6415-.3831,1.3257-.6835,1.9853-1.0286l3.9815-2.0007c1.3148-.6855,2.7063-1.1913,4.0507-1.7933,1.361-.5627,2.6925-1.1926,4.0685-1.6956l4.1249-1.4879,2.0552-.7411,2.0857-.6287,4.1574-1.2512c1.3809-.4224,2.7935-.7121,4.1838-1.0735,1.3971-.3335,2.7812-.7119,4.18-1.0065l4.1986-.8279a173.4261,173.4261,0,0,1,33.368-3.037c21.9554.0827,43.3588,3.6851,62.46,11.7457a119.534,119.534,0,0,1,13.7551,6.937,98.3867,98.3867,0,0,1,12.4036,8.7783l2.8417,2.481c.9192.8545,1.7971,1.7515,2.6946,2.6229a34.6075,34.6075,0,0,1,2.5781,2.8037c.8259.9731,1.5266,1.995,2.2927,2.9879a140.1245,140.1245,0,0,1,7.7363,12.4476c2.3753,4.2035,4.553,8.46,6.6307,12.7235,2.0884,4.2584,4,8.5607,5.7821,12.8895a83.69,83.69,0,0,1,4.4747,13.36l.32,1.8163c.1182.6074.1116,1.1944.1725,1.792.122,1.1949.094,2.3657.1147,3.542-.013,1.17-.0741,2.3307-.1356,3.4882-.1105,1.1476-.1693,2.3044-.3235,3.4384a104.3848,104.3848,0,0,1-2.4964,13.3475,85.3266,85.3266,0,0,1-4.2067,12.7508,32.1507,32.1507,0,0,1-1.5816,3.114c-.5976.9845-1.2137,1.8566-1.8184,2.7872-1.169,1.8645-2.5543,3.5676-3.839,5.33-.6765.8553-1.39,1.6785-2.0823,2.5162-.689.8408-1.3907,1.6675-2.1451,2.4442l-2.2115,2.3679-2.3215,2.2393-1.16,1.1136-1.2126,1.0493-2.4223,2.0872-2.5117,1.9533-1.2555.969-1.2948.9076-2.5852,1.8041-2.6516,1.6747-1.3231.8322-1.3537.7713-2.7,1.536a135.2878,135.2878,0,0,1-22.3633,9.3869,248.7989,248.7989,0,0,1-44.6835,9.545,192.9406,192.9406,0,0,1-23.8574,1.1741,168.5952,168.5952,0,0,1-25.8284-2.4215c-4.14-.6331-8.0689-1.6081-11.7557-2.4123l-5.263-1.4364-2.4587-.6812-2.3042-.75c-2.9855-.9678-5.6138-1.8061-7.7206-2.665Z"/><path d="M253.4867,448.7106c.1291.3054-.2134.9548-.8452,1.8155-.3158.43-.7034.9124-1.1388,1.4289-.4562.4914-.9851.9862-1.5261,1.51-.55.5107-1.0975,1.0763-1.6941,1.5658l-1.7616,1.443c-1.116.9725-2.206,1.73-2.9212,2.3888a44.5815,44.5815,0,0,1-8.8727,6.0264,82.5224,82.5224,0,0,1-9.9693,4.31,66.8028,66.8028,0,0,1-17.2,3.7885,50.59,50.59,0,0,1-14.4448-.7036,24.9126,24.9126,0,0,1,6.2591-4.4834c2.2293-1.154,4.3208-1.91,5.5064-1.7966a50.9106,50.9106,0,0,0,24.5584-4.1644c6.7454-2.9373,11.9084-6.5578,16.5889-9.3533.568-.328,1.2093-.7427,1.9436-1.1116.7207-.3832,1.5367-.722,2.2676-1.0886C251.6731,449.53,253.0221,448.9025,253.4867,448.7106Z"/><path d="M317.4183,192.3377a.35.35,0,0,1,.0639-.4927.6569.6569,0,0,1,.53-.1242,1.1683,1.1683,0,0,1,.5311.2472,1.8532,1.8532,0,0,1,.5629.79,1.9224,1.9224,0,0,1,.0731,1.1862,9.1341,9.1341,0,0,0-.2551,2.5006,14.4179,14.4179,0,0,1-.6833,6.2653,10.6616,10.6616,0,0,1-6.0391,7.2212c-2.6-2.21-3.9422-4.8938-3.1417-5.2987,6.4447-3.2594,4.588-8.6432,6.8593-11.2409a1.7666,1.7666,0,0,1,.5637-.4825l.0238-.0143.012-.0071.0007,0c-.1792-.0775,1.565.6739.8261.3556l-.002-.001-.004-.002-.0081-.004-.065-.0268-.1343-.0381a1.8807,1.8807,0,0,0-.2672-.0409c-.13-.0046-.0334-.0009.0195-.0133a.7627.7627,0,0,0,.1619-.0562,1.8378,1.8378,0,0,0,.2971-.1863c.0451-.0411.09-.063.1306-.106a.7.7,0,0,0,.1652-.1717.2559.2559,0,0,0,.0324-.0755.132.132,0,0,0-.0438-.0941A.3962.3962,0,0,0,317.4183,192.3377Z"/><path class="cls-2" d="M302.0109,223.9482c3.2844-.3393,5.4515-3.4858,7.0694-6.3641,3.5463-6.3086,6.734-12.954,7.9308-20.0915,4.9954-29.7913-21.03-54.072-50.2705-51.2357-17.334,1.6814-33.1892,12.4793-42.5133,27.1883"/><path d="M224.1765,173.413c-.1312-.845,3.03-6.6524,8.3932-12.0565a61.8789,61.8789,0,0,1,8.7927-7.4881,81.9067,81.9067,0,0,1,8.1425-4.9531,49.3931,49.3931,0,0,1,26.5562-5.8973,49.9985,49.9985,0,0,1,26.4644,9.6984,46.1156,46.1156,0,0,1,15.0014,18.6305,43.7693,43.7693,0,0,1,3.4126,22.4918c-.0776.9107-.2173,1.8056-.3813,2.69-.1471.8851-.3033,1.7631-.5165,2.6362a44.2345,44.2345,0,0,1-1.5137,5.0112,57.9142,57.9142,0,0,1-4.1492,8.7917c-.7609,1.34-1.55,2.6169-2.3392,3.8467l-1.1881,1.8088c-.4077.61-.8359,1.2137-1.29,1.8a15.0759,15.0759,0,0,1-3.1858,3.1646,7.612,7.612,0,0,1-4.25,1.4781,7.4032,7.4032,0,0,0,3.1356-2.5861,15.6207,15.6207,0,0,0,1.8111-3.719c.4694-1.3275.9005-2.7921,1.3739-4.251.4519-1.4447.9069-2.899,1.3545-4.33.8615-2.8435,1.6031-5.549,2.1365-7.8655.5538-2.3166.9205-4.24,1.2809-5.5573a36.5127,36.5127,0,0,0,.7115-16.2764,37.4163,37.4163,0,0,0-2.2811-7.6376,40.4,40.4,0,0,0-3.7693-6.833,40.9811,40.9811,0,0,0-10.6268-10.5231,43.6138,43.6138,0,0,0-12.76-5.96,44.8488,44.8488,0,0,0-13.0536-1.6437,49.1144,49.1144,0,0,0-12.1292,1.849,62.7065,62.7065,0,0,0-19.8191,9.859,105.8012,105.8012,0,0,0-9.2154,7.5008c-1.5012,1.3656-2.7978,2.7484-3.8833,3.8536Z"/><g class="cls-3"><path d="M304.518,223.71c.0482.0285.1135.0735.1435.0524l-.0018-.002a.1186.1186,0,0,0,.0185-.0639.227.227,0,0,1,.0416-.07.5326.5326,0,0,0,.1131-.2244c.0056-.0457-.0381-.0481.0747-.0235.0673.0073.0558-.0354-.1334.1007a.1581.1581,0,0,0-.0493-.0136c-.03.0179-.0037-.0475-.0831.0494-.052.0956-.1364.0675-.2149.0776-.081.0081-.1643.0182-.2509.0345a6.2561,6.2561,0,0,0-1.1053.3339l-2.5139,1.0408a34.7138,34.7138,0,0,1-3.4453.886c-.5828.12-1.1662.2256-1.7448.3182l-.8633.1289-.4274.0569-.1064.0135.0792-.0574.1636-.1167a7.4276,7.4276,0,0,0,1.8573-1.8375,4.8021,4.8021,0,0,0,.8527-2.6673,15.9735,15.9735,0,0,0,2.8529-2.9762,20.1664,20.1664,0,0,0,1.6471-2.57l2.26,2.8009-.4922.2244c-4.7554,2.2071-9.862,4.3636-15.1171,6.4708l-2.7995-5.4464c5.2293-4.0632,10.4872-8.32,15.3559-12.5745l4.7866,5.7209c-1.08.9225-2.1076,1.7511-3.1737,2.5044a39.412,39.412,0,0,1-22.3732,7.3252l-14.8523.1216,12.7794-7.2674c6.4761-3.6828,12.741-7.0491,18.5642-9.9834,2.9116-1.4671,5.7129-2.8263,8.3749-4.0631l1.9455-.8923a5.7593,5.7593,0,0,0,1.28-.7152,1.158,1.158,0,0,0,.4375-1.0673.7631.7631,0,0,0-.7791-.73,2.0737,2.0737,0,0,1,2.154,1.7535c.2484,1.1548-.6108,2.3973-1.4482,3.2739-1.5994,1.7359-3.3281,3.4284-5.093,5.0112-3.5152,3.1531-7.052,5.7607-9.1725,6.6894-4.5661,2-8.9179,4.0483-13.0554,6.108l-1.3066-4.5044a31.8677,31.8677,0,0,0,12.2164-1.8077,32.884,32.884,0,0,0,10.1277-5.7675l1.94,2.3192c-5.5217,4.5842-10.7888,8.79-15.8654,12.58l-1.67-3.2482c5.6159-2.1321,10.8844-4.147,15.8816-5.9147l5.7905-2.0484-3.191,5.27a10.3842,10.3842,0,0,1-1.2194,1.6467,14.4388,14.4388,0,0,1-2.2859,2.0094c-.2826.2119-.6477.4667-1.2041.822l-.18.1135c-.0491.0326-.1666.0993-.1071.0783l.128-.01.2687-.0141.6489-.0319c.4929-.03,1.1616-.1023,1.8925-.2038l1.1218-.215a1.3687,1.3687,0,0,1,1.1587.233.93.93,0,0,1,.2544.3142.5452.5452,0,0,1,.0382.4171.7646.7646,0,0,1-.4049.4212.5261.5261,0,0,1-.42.043A.2064.2064,0,0,1,304.518,223.71Z"/></g><g class="cls-3"><path d="M276.2674,295.2475c-1.5674.944-11.0061,4.7146-24.7755,10.0388l-.8318-1.4023a24.6879,24.6879,0,0,1,12.7781-5.9245l.6525,1.7958a86.2149,86.2149,0,0,1-31.47,12.3352l-3.7973.6682,2.7241-2.75a63.7,63.7,0,0,1,22.8992-14.7543l1.04,2.57a325.8073,325.8073,0,0,1-45.92,16.68l-1.5511-2.9638a114.3862,114.3862,0,0,1,18.1075-12.6578,109.7714,109.7714,0,0,1,14.5289-6.86l1.7588,4a324.5615,324.5615,0,0,1-58.18,23.9789l-2.6764-4.96a169.8522,169.8522,0,0,1,39.2329-25.4039l2.7654,5.8251A492.7359,492.7359,0,0,1,166.9488,319.39l-3.6611-5.8539a116.8534,116.8534,0,0,1,20.2231-15.88c7.0626-4.5008,14.2546-8.4012,21.3052-12.2266l3.4382,6.625c-7.1906,3.6233-13.9442,6.81-20.7024,9.8169-11.5151,5.1132-23.225,9.7339-35.0293,13.84l-14.1945,4.9374,9.9967-11.2418a98.9546,98.9546,0,0,1,19.9-16.6924c7.1286-4.6762,14.4936-8.6573,21.71-12.547l3.4,7.1051-64.2328,26.8322-4.1355-6.1557A156.3133,156.3133,0,0,1,169.15,277.24l2.8142,6.358L124.6287,302.84a24.26,24.26,0,0,0-4.2735-1.5722,30.5131,30.5131,0,0,1,1.7965-4.941L140.4544,282.2l10.4337-7.9562,2.3122,4.3806a412.2557,412.2557,0,0,0-41.3523,15.005l-2.0294-2.9893c10.4552-9.8881,19.0848-17.9734,27.2557-25.59-6.9614,7.909-15.6832,17.4536-25.2226,27.6747l-1.1908-1.7539a347.0467,347.0467,0,0,1,40.9369-17.3977l2.5568,4.8442-5.0974,4.24-2.5283,2.0966-1.1667.97-.2265.2327a5.1156,5.1156,0,0,0-.9033,1.1c-.0905.2106.1032.1761.3857.0477a13.6313,13.6313,0,0,0,1.1916-.6788c.103-.071.088-.0743.0854-.063l.001.0111.0049.0066.004.0033.0026.0016c-.0053.0031-.0132.0073.0989-.0382l3.6221-1.4389,19.6819-7.7164,2.7971,6.3193a149.3417,149.3417,0,0,0-42.6069,28.9753l-2.8856-4.2952q33.1715-13.4412,64.447-26.3231l1.6554,3.4588c-7.5105,3.9769-14.8938,7.9281-21.7671,12.412A92.6312,92.6312,0,0,0,152.463,313.1l-1.7518-2.6309a443.367,443.367,0,0,0,55.1948-23.1039l1.3929,2.684c-7.415,3.982-14.71,7.93-21.5729,12.3187a110.1361,110.1361,0,0,0-18.83,14.7825l-1.6176-2.5866a488.7663,488.7663,0,0,0,56.0763-23.5787l1.5131,3.1873A166.44,166.44,0,0,0,184.6882,318.73l-1.82-3.3719a332.4822,332.4822,0,0,0,57.5489-23.2125l1.7446,3.9675a107.7786,107.7786,0,0,0-31.63,18.4188l-1.9882-3.7991a328.2171,328.2171,0,0,0,44.2794-15.4448l1.2856-.5589,1.5009,3.7086a62.0269,62.0269,0,0,0-21.9931,13.65l-1.4891-2.8884a85.7666,85.7666,0,0,0,30.9059-11.1172l.6683,1.8392a23.195,23.195,0,0,0-6.8853,1.8891,23.7843,23.7843,0,0,0-5.1875,3.19l-.6523-1.1C263.4694,299.58,272.5269,296.502,276.2674,295.2475Z"/></g><g class="cls-3"><path d="M282.9082,372.68c-.7288.8509-10.1,1.9518-19.0959,3.0218l-2.555.3038,1.2252-2.3558a18.5891,18.5891,0,0,1,5.79-6.5565l1.5195,2.92c-2.0345.9188-3.8986,1.6236-5.3769,2.1571a45.575,45.575,0,0,1-10.7607,2.4779l-9.3809,1.008,7.7506-5.8614c4.2916-3.2455,8.8029-6.54,13.338-9.7932l2.6986,5.9666c-7.3,2.1422-14.6066,4.1971-21.5772,6.1654l-4.9767,1.387L237.9,366.8779a48.8538,48.8538,0,0,1,10.5933-7.3085c3.6674-1.93,7.34-3.4684,10.8554-4.9121l1.9758,7.2794a106.9351,106.9351,0,0,0-23.434,5.1472l-2.4249-5.1459c7.0518-3.2554,13.37-5.9721,18.9032-8.14-3.663,4.3243-10.2834,9.7781-15.9348,13.6986l-2.9406-6.24a34.5772,34.5772,0,0,1,8.9431-3.594,121.176,121.176,0,0,1,16.1156-2.0389l1.3223,4.8717a106.8834,106.8834,0,0,0-11.0324,4.4659,41.5647,41.5647,0,0,0-9.2473,5.9753l-1.48-2.7246c9.542-2.3293,18.4027-4.7606,26.6724-7.1005l1.3811,3.0537q-7.07,4.988-13.5129,9.5337l-1.26-3.7515a51.3933,51.3933,0,0,0,14.95-3.4893l2.0091,3.86a15.7211,15.7211,0,0,0-4.7377,4.683l-.1817.2973-1.9218-2.9651A192.0245,192.0245,0,0,1,282.9082,372.68Z"/></g><g class="cls-3"><path d="M217.4528,325.3121c-.196.6056-3.0352,1.86-6.7817,3.072-3.7419,1.2251-8.3891,2.3529-12.0439,3.1609l-1.11-3.0865c1.1867-.7886,2.2335-1.5085,3.0462-2.1149,1.1488-.8571,2.3289-1.7139,3.6555-2.64l1.7141,4.421c-8.911,2.7778-18.714,5.7869-27.5551,9.1274l-2.7517-7.038.9716-.48a38.9909,38.9909,0,0,0,10.7613-8.1595l3.583,6.4725c-9.1352,1.4792-17.8442,3.6677-25.5829,5.1579l-2.0464-4.5872c3.611-1.7411,6.992-3.2516,10.0587-4.4891a44.3179,44.3179,0,0,1-7.3132,8.9869l-2.212-4.9584c3.7032-2.1134,7.4144-3.6816,9.5043-3.9553,5.7869-.7784,11.3256-1.5609,16.5566-2.1036l6.2115-.6443-4.2677,4.1557a46.7,46.7,0,0,1-14.0986,9.4615l-1.1064-2.83c10.3792-3.4964,19.7374-6.4911,28.3344-8.543l1.5189,3.9177c-2.4155,1.48-4.7558,2.8788-7.04,4.1746l-1.4564-4.0506,5.5506-.8537c2.202-.3874,5.27-.6836,7.9974-.9707Z"/></g></g></g></svg>